<svg width="626" height="447" viewBox="0 0 626 447" fill="none" xmlns="http://www.w3.org/2000/svg">
<g clip-path="url(#clip0)">
<path d="M472.075 318.961C464.264 301.194 449.261 286.367 431.237 279.071C412.468 271.471 390.915 274.236 371.145 271.692C353.967 269.481 341.587 261.817 331.332 248.189C321.508 235.131 312.699 220.67 296.653 214.629C283.961 209.855 269.532 211.18 256.917 216.152C233.676 225.317 216.119 244.802 201.333 264.215C187.834 281.94 176.825 301.346 151.856 301.978C126.887 302.61 103.084 288.366 77.9305 292.135C44.6838 297.126 16.9987 324.804 11.1908 357.751C5.75231 388.631 19.3971 418.583 42.8396 436.181H445.764C475.303 404.845 490.805 361.543 472.075 318.961Z" fill="#F7F0E3"/>
<path d="M107.829 436.165H108.938C116.807 427.444 122.784 417.187 126.491 406.041C132.695 387.597 132.435 368.239 125.755 351.535C122.378 343.109 117.507 335.227 112.791 327.617C108.011 319.9 103.068 311.921 99.7136 303.372C98.3058 299.756 97.2909 296 96.6865 292.168L95.8535 292.067C96.4618 296.036 97.5041 299.926 98.9617 303.667C102.342 312.284 107.307 320.296 112.107 328.042C116.804 335.619 121.659 343.459 125.007 351.833C131.615 368.362 131.871 387.519 125.726 405.782C121.975 417.06 115.875 427.416 107.829 436.165Z" fill="white"/>
<path d="M443.816 401.024C452.119 402.794 460.118 404.378 467.855 405.377C467.988 405.121 468.117 404.865 468.247 404.608C460.446 403.617 452.366 402.016 443.984 400.23C431.215 397.511 417.408 394.565 403.685 394.565C395.197 394.565 386.754 395.693 378.632 398.704C375.544 399.851 372.574 401.295 369.764 403.014C362.43 399.89 355.056 396.477 347.754 392.73C353.053 388.738 358.411 384.829 363.823 381.063C404.012 353.006 441.09 337.1 476.917 332.585C476.845 332.323 476.771 332.06 476.696 331.798C440.772 336.335 403.611 352.297 363.363 380.412C357.834 384.272 352.366 388.268 346.957 392.345C338.659 388.079 330.587 383.389 322.772 378.292C308.512 368.958 291.58 355.635 276.782 337.93C334.132 331.497 392.52 323.391 440.202 291.523C442.014 290.314 444.02 288.885 446.098 287.268L445.404 286.781C443.414 288.324 441.492 289.698 439.755 290.849C392.085 322.707 333.588 330.751 276.166 337.194C265.707 324.554 256.363 309.688 249.871 292.489C239.756 265.696 240.291 239.406 251.336 220.352C251.816 219.526 252.309 218.709 252.843 217.905C252.383 218.116 251.926 218.336 251.469 218.554C251.184 219.014 250.906 219.477 250.636 219.944C239.468 239.208 238.913 265.751 249.113 292.771C255.572 309.876 264.832 324.674 275.203 337.298C271.88 337.669 268.559 338.038 265.24 338.403C253.284 339.722 240.933 341.086 228.911 342.632C224.53 343.196 220.073 343.854 215.623 344.681C206.117 324.616 195.675 305.044 182.176 288.256C181.981 288.447 181.787 288.635 181.592 288.827C194.974 305.485 205.352 324.914 214.803 344.836C195.461 348.524 176.679 355.46 166.651 371.6C157.284 386.673 157.294 407.509 166.677 433.527C167.001 434.426 167.334 435.315 167.675 436.194H168.544C168.171 435.222 167.801 434.25 167.442 433.252C158.146 407.477 158.114 386.877 167.341 372.024C177.249 356.076 195.931 349.234 215.166 345.588C218.524 352.686 221.765 359.848 224.987 366.959L225.337 367.733C236.528 392.436 248.102 416.273 263.257 436.194H264.268C248.977 416.237 237.338 392.257 226.076 367.399L225.726 366.625C222.53 359.573 219.315 352.475 216.002 345.436C220.352 344.632 224.724 343.987 229.022 343.436C241.014 341.89 253.381 340.519 265.321 339.223C268.813 338.838 272.31 338.45 275.813 338.059C290.754 356.04 307.899 369.548 322.325 378.989C330.055 384.013 338.035 388.64 346.234 392.854C332.45 403.28 319.045 414.244 305.954 424.955C301.417 428.663 296.837 432.396 292.216 436.156H293.512C297.87 432.619 302.192 429.095 306.476 425.584C319.658 414.801 333.16 403.753 347.041 393.268C354.304 397.005 361.626 400.398 368.931 403.532C358.952 409.878 350.817 419.708 345.9 431.641C345.285 433.135 344.747 434.645 344.251 436.159H345.103C345.573 434.749 346.075 433.342 346.649 431.946C351.579 419.98 359.782 410.16 369.839 403.915C390.232 412.578 410.271 419.008 427.494 424.103L428.142 424.294C435.399 426.439 442.821 428.64 449.387 432.169L449.938 431.541C443.265 427.92 435.736 425.707 428.372 423.516L427.724 423.325C410.679 418.282 390.867 411.93 370.682 403.396C373.298 401.836 376.052 400.517 378.907 399.455C399.938 391.677 423.251 396.642 443.816 401.024Z" fill="white"/>
<path d="M44.862 348.54C48.4272 363.189 46.8455 379.005 40.4801 391.943C36.3121 400.415 30.2935 408.086 22.8812 414.671C23.0303 414.902 23.1794 415.128 23.3285 415.355C30.8607 408.682 36.9765 400.901 41.2061 392.299C47.6526 379.196 49.2698 363.176 45.6464 348.346C42.8169 336.76 37.1256 326.956 29.2596 319.845L28.7378 320.468C36.4709 327.462 42.0715 337.126 44.862 348.54Z" fill="white"/>
<path d="M228.26 162.981C235.306 170.202 238.469 182.343 234.577 193.537C230.808 204.384 222.546 213.368 212.622 219.14C204.636 223.788 194.219 226.351 186.37 221.483C180.5 217.847 177.457 210.711 177.295 203.811C177.133 196.911 179.447 190.183 182.315 183.902C186.36 175.051 191.802 166.465 199.911 161.082C211.083 153.674 221.454 156.046 228.26 162.981Z" fill="#F7F0E3"/>
<path d="M134.681 36.5207H76.2322V10.4248H134.681V36.5207ZM77.4476 35.3054H133.466V11.6239H77.4476V35.3054Z" fill="#E9DDCA"/>
<path d="M96.6572 61.4887H38.2081V35.3799H96.6572V61.4887ZM39.4235 60.2734H95.4418V36.5952H39.4235V60.2734Z" fill="#E9DDCA"/>
<path d="M467.245 89.3121C463.462 76.7287 456.805 65.1618 447.274 54.6116C437.743 44.0613 424.721 35.3345 408.206 28.4314C391.709 21.5347 370.751 18.0864 345.33 18.0864C325.05 18.0864 304.38 20.8217 283.322 26.2924C262.264 31.763 243.974 39.578 228.451 49.7372L248.637 105.157L237.818 113.907L253.508 118.519C268.996 110.415 283.105 104.529 295.836 100.863C308.567 97.1962 322.081 95.3726 336.378 95.3921C350.682 95.3921 361.511 98.8404 368.867 105.737C376.222 112.634 379.895 120.952 379.886 130.692C379.886 142.463 376.115 152.914 368.572 162.045C361.029 171.176 352.676 180.41 343.515 189.748C337.169 196.23 331.011 202.922 325.041 209.823C319.084 216.719 313.795 224.164 309.244 232.059C304.599 240.127 300.901 248.706 298.225 257.623C295.431 266.758 294.04 277.004 294.053 288.36C294.053 292.025 294.131 296.384 294.345 301.46C294.381 302.396 294.429 303.307 294.484 304.208H279.653L295.839 315.153H374.538C374.105 312.334 373.904 309.484 373.936 306.632V299.321C373.961 292.314 375.379 285.382 378.107 278.929C380.914 272.19 384.414 265.761 388.549 259.746C392.757 253.607 397.442 247.81 402.561 242.407C407.722 236.917 412.692 231.738 417.469 226.87C423.815 220.388 430.369 213.491 437.13 206.18C443.776 199.024 449.765 191.283 455.023 183.053C460.282 174.734 464.579 165.846 467.832 156.558C471.209 147.025 472.904 136.574 472.917 125.205C472.93 113.836 471.04 101.872 467.245 89.3121Z" fill="#E49B31"/>
<path d="M319.716 91.5289C305.561 91.5289 292.206 93.293 279.65 96.8213C267.094 100.35 253.15 106.046 237.818 113.911L213.056 47.3389C228.382 37.5189 246.456 29.9568 267.279 24.6524C288.102 19.3481 308.528 16.7014 328.558 16.7122C353.684 16.7122 374.399 20.0493 390.701 26.7234C407.004 33.3975 419.874 41.8423 429.312 52.0577C438.728 62.2796 445.307 73.4737 449.047 85.6401C452.787 97.8065 454.654 109.391 454.647 120.393C454.647 131.412 452.973 141.525 449.624 150.734C446.401 159.739 442.154 168.343 436.964 176.376C431.757 184.355 425.839 191.846 419.281 198.758C412.607 205.836 406.13 212.51 399.851 218.78C395.132 223.499 390.222 228.512 385.12 233.818C380.069 239.038 375.438 244.649 371.271 250.6C367.191 256.41 363.733 262.632 360.952 269.164C358.258 275.396 356.856 282.109 356.829 288.898V295.976C356.797 298.737 356.995 301.496 357.422 304.224H279.637C278.787 299.854 278.293 295.422 278.159 290.972C277.949 286.062 277.871 281.842 277.871 278.293C277.871 267.305 279.245 257.388 281.993 248.545C284.646 239.901 288.302 231.597 292.887 223.804C297.394 216.15 302.622 208.944 308.499 202.284C314.387 195.61 320.473 189.134 326.759 182.855C335.793 173.821 344.047 164.884 351.52 156.043C358.994 147.201 362.721 137.088 362.702 125.701C362.702 116.266 359.071 108.211 351.809 101.537C344.547 94.8627 333.849 91.5267 319.716 91.5289Z" fill="#FBC343"/>
<path d="M379.919 391.557C379.919 405.746 375.325 416.699 366.138 424.417C356.95 432.135 346.563 435.999 334.975 436.01C323.365 436.01 312.974 432.145 303.799 424.417C294.625 416.688 290.038 405.735 290.038 391.557C290.038 377.386 294.626 366.432 303.802 358.697C317.943 346.764 338.864 344.113 355.419 352.481C370.108 359.916 379.919 375.006 379.919 391.557Z" fill="#E49B31"/>
<path d="M364.524 391.557C364.524 405.746 359.93 416.699 350.743 424.417C341.555 432.135 331.168 435.999 319.58 436.01C307.971 436.01 297.579 432.145 288.404 424.417C279.23 416.688 274.643 405.735 274.643 391.557C274.643 377.386 279.231 366.433 288.408 358.698C297.584 350.963 307.976 347.098 319.583 347.105C331.175 347.105 341.563 350.969 350.746 358.698C359.929 366.426 364.521 377.379 364.524 391.557Z" fill="#FBC343"/>
<path d="M127.992 195.877C131.855 193.234 132.844 187.96 130.201 184.097C127.558 180.234 122.283 179.245 118.42 181.888C114.557 184.531 113.568 189.805 116.211 193.668C118.854 197.531 124.129 198.52 127.992 195.877Z" fill="#D3DFFF"/>
<path d="M135.6 206.363C136.085 203.775 134.367 201.281 131.761 200.793C129.156 200.304 126.65 202.006 126.165 204.594C125.679 207.182 127.398 209.675 130.004 210.164C132.609 210.653 135.115 208.951 135.6 206.363Z" fill="#D3DFFF"/>
<path d="M135.109 152.357C138.505 134.244 126.574 116.807 108.46 113.411C90.3462 110.014 72.9085 121.945 69.5121 140.058C66.1156 158.171 78.0465 175.608 96.1604 179.005C114.274 182.401 131.712 170.471 135.109 152.357Z" fill="#D3DFFF"/>
<path d="M89.4849 150.391C91.8065 150.391 93.6885 148.509 93.6885 146.187C93.6885 143.866 91.8065 141.984 89.4849 141.984C87.1633 141.984 85.2812 143.866 85.2812 146.187C85.2812 148.509 87.1633 150.391 89.4849 150.391Z" fill="white"/>
<path d="M102.3 150.391C104.622 150.391 106.504 148.509 106.504 146.187C106.504 143.866 104.622 141.984 102.3 141.984C99.9783 141.984 98.0963 143.866 98.0963 146.187C98.0963 148.509 99.9783 150.391 102.3 150.391Z" fill="white"/>
<path d="M115.112 150.391C117.433 150.391 119.315 148.509 119.315 146.187C119.315 143.866 117.433 141.984 115.112 141.984C112.79 141.984 110.908 143.866 110.908 146.187C110.908 148.509 112.79 150.391 115.112 150.391Z" fill="white"/>
<path d="M78.3939 419.306L81.5118 431.327C82.3253 434.461 85.3557 436.58 88.7102 436.35C98.9325 435.656 120.174 433.151 132.367 424.164L128.902 406.841C112.14 405.895 96.466 406.841 82.8795 411.395C79.4959 412.542 77.5221 415.948 78.3939 419.306Z" fill="#102048"/>
<path d="M97.9277 428.873C97.8396 428.873 97.754 428.844 97.6839 428.791C97.6137 428.738 97.5627 428.663 97.5388 428.578L93.3514 413.596C93.3371 413.544 93.3331 413.491 93.3395 413.438C93.346 413.385 93.3628 413.334 93.389 413.288C93.4152 413.241 93.4502 413.2 93.4922 413.168C93.5341 413.135 93.582 413.111 93.6333 413.096C93.6846 413.082 93.7382 413.078 93.7911 413.085C93.8439 413.091 93.895 413.108 93.9413 413.134C93.9876 413.16 94.0284 413.195 94.0612 413.237C94.094 413.279 94.1182 413.327 94.1324 413.378L98.3199 428.368C98.3369 428.428 98.3397 428.491 98.3282 428.553C98.3167 428.614 98.2911 428.672 98.2534 428.722C98.2157 428.772 98.167 428.812 98.1111 428.84C98.0551 428.868 97.9935 428.883 97.931 428.883L97.9277 428.873Z" fill="white"/>
<path d="M106.977 426.848C106.889 426.847 106.803 426.818 106.733 426.765C106.663 426.712 106.612 426.637 106.588 426.553L102.4 411.563C102.372 411.46 102.385 411.349 102.438 411.255C102.491 411.162 102.579 411.093 102.682 411.064C102.786 411.035 102.897 411.049 102.99 411.102C103.084 411.155 103.153 411.243 103.182 411.346L107.369 426.336C107.386 426.396 107.389 426.459 107.377 426.52C107.366 426.582 107.34 426.64 107.302 426.69C107.265 426.74 107.216 426.78 107.16 426.808C107.104 426.836 107.043 426.851 106.98 426.851L106.977 426.848Z" fill="white"/>
<path d="M117.487 354.332L78.53 365.892L107.46 405.535L148.997 408.838L206.289 384.612L184.519 351.856L117.487 354.332Z" fill="#FBC343"/>
<path d="M165.517 359.838C251.08 334.514 264.822 410.124 131.333 423.889C126.618 418.583 121.108 409.379 118.92 401.682L189.413 369.107L165.517 359.838Z" fill="#FBC343"/>
<path d="M169.15 414.03C165.147 412.733 161.313 410.219 161.313 410.219L147.558 414.529L150.708 429.486L164.992 432.403C169.351 424.43 169.597 417.893 169.15 414.03Z" fill="#F9B384"/>
<path d="M119.225 402.207L118.615 401.157C133.323 392.611 170.991 372.079 203.087 366.022L203.314 367.218C171.399 373.236 133.874 393.693 119.225 402.207Z" fill="#E49B31"/>
<path d="M117.484 354.332C37.8484 339.194 17.2256 415.722 150.715 429.476C155.677 423.949 159.303 417.356 161.313 410.206C140.807 396.487 117.883 383.445 92.7551 371.023L117.484 354.332Z" fill="#FBC343"/>
<path d="M160.989 410.727C157.2 408.316 153.253 405.769 149.075 403.069C128.095 389.525 104.319 374.173 84.1177 365.419L84.6006 364.304C104.893 373.097 128.715 388.478 149.746 402.048C153.923 404.745 157.868 407.292 161.653 409.703L160.989 410.727Z" fill="#E49B31"/>
<path d="M59.0578 392.277L57.9948 391.69C60.983 386.278 65.7733 382.615 72.2262 380.843L72.5503 382.013C66.334 383.734 61.9229 387.091 59.0578 392.277Z" fill="#E49B31"/>
<path d="M225.269 387.668C222.404 382.483 217.989 379.125 211.776 377.404L212.1 376.234C218.553 378.02 223.343 381.672 226.332 387.081L225.269 387.668Z" fill="#E49B31"/>
<path d="M143.257 428.828L142.372 427.985C148.744 421.163 152.656 413.962 154.335 405.966L155.525 406.216C153.794 414.432 149.785 421.824 143.257 428.828Z" fill="#E49B31"/>
<path d="M208.866 409.573C198.663 403.27 178.883 414.163 173.917 414.714C172.469 414.876 170.796 414.558 169.15 414.03C169.604 417.896 169.351 424.43 164.998 432.39L167.426 432.882C167.426 432.882 184.198 439.04 201.991 435.452C218.414 432.146 216.887 414.529 208.866 409.573Z" fill="#102048"/>
<path d="M194.958 430.192C194.916 430.192 194.875 430.185 194.835 430.173C194.784 430.157 194.737 430.131 194.696 430.097C194.655 430.063 194.621 430.021 194.597 429.974C194.572 429.926 194.557 429.875 194.552 429.821C194.547 429.768 194.553 429.715 194.569 429.664C195.782 425.827 196.31 418.275 192.8 413.203C192.739 413.115 192.715 413.006 192.735 412.9C192.754 412.794 192.815 412.7 192.903 412.639C192.992 412.578 193.101 412.555 193.207 412.574C193.313 412.594 193.406 412.654 193.467 412.743C197.143 418.055 196.605 425.917 195.344 429.92C195.316 430 195.264 430.069 195.195 430.118C195.126 430.167 195.043 430.193 194.958 430.192Z" fill="white"/>
<path d="M186.956 431.709C186.914 431.709 186.873 431.702 186.833 431.689C186.782 431.674 186.735 431.648 186.694 431.614C186.653 431.58 186.619 431.538 186.594 431.49C186.57 431.443 186.555 431.391 186.55 431.338C186.545 431.285 186.551 431.232 186.567 431.181C187.779 427.343 188.308 419.792 184.798 414.72C184.737 414.631 184.713 414.522 184.733 414.417C184.752 414.311 184.813 414.217 184.901 414.156C184.99 414.095 185.099 414.072 185.205 414.091C185.311 414.111 185.404 414.171 185.465 414.26C189.141 419.572 188.603 427.434 187.342 431.437C187.314 431.517 187.262 431.586 187.193 431.635C187.124 431.684 187.041 431.71 186.956 431.709V431.709Z" fill="white"/>
<path d="M103.395 255.659C103.395 255.659 123.451 238.605 122.709 235.364C122.177 233.047 116.496 236.444 116.496 236.444C116.496 236.444 124.462 226.99 124.057 225.842C123.334 223.791 117.821 227.615 117.821 227.615C117.821 227.615 121.545 222.255 119.766 221.38C117.987 220.505 114.104 223.81 114.104 223.81C114.104 223.81 116.373 220.835 115.306 220.054C114.24 219.273 109.644 222.485 109.644 222.485C109.644 222.485 111.294 218.732 107.79 220.155C104.287 221.577 79.7131 244.137 79.7131 244.137L103.395 255.659Z" fill="#F9B384"/>
<path d="M111.602 235.432C111.501 235.432 111.404 235.394 111.329 235.325C107.887 232.182 106.367 231.417 102.579 230.247C102.528 230.231 102.48 230.205 102.44 230.171C102.399 230.137 102.365 230.096 102.34 230.049C102.315 230.001 102.3 229.95 102.295 229.897C102.29 229.844 102.295 229.79 102.311 229.74C102.327 229.689 102.353 229.642 102.387 229.601C102.421 229.56 102.462 229.526 102.509 229.501C102.557 229.476 102.608 229.461 102.661 229.456C102.714 229.451 102.768 229.457 102.818 229.472C106.753 230.681 108.328 231.472 111.893 234.726C111.953 234.781 111.995 234.853 112.014 234.932C112.032 235.011 112.026 235.094 111.997 235.17C111.968 235.246 111.916 235.311 111.849 235.358C111.782 235.404 111.703 235.429 111.621 235.429L111.602 235.432Z" fill="#E28B6D"/>
<path d="M105.56 244.682H105.505C105.399 244.667 105.304 244.61 105.239 244.524C105.175 244.439 105.147 244.331 105.162 244.225C105.557 241.405 106.458 239.642 107.874 238.838C109.1 238.151 110.691 238.219 112.61 239.049C112.705 239.094 112.779 239.174 112.816 239.273C112.853 239.372 112.85 239.481 112.807 239.577C112.765 239.674 112.687 239.75 112.59 239.79C112.492 239.83 112.383 239.83 112.286 239.791C110.613 239.069 109.262 238.984 108.27 239.545C107.09 240.193 106.325 241.814 105.962 244.338C105.948 244.434 105.899 244.522 105.825 244.585C105.751 244.648 105.657 244.682 105.56 244.682Z" fill="#E28B6D"/>
<path d="M104.614 227.635C104.533 227.635 104.453 227.611 104.386 227.565C104.319 227.52 104.267 227.455 104.237 227.379C104.207 227.304 104.2 227.221 104.217 227.142C104.235 227.063 104.276 226.99 104.335 226.935L109.369 222.193C109.407 222.154 109.452 222.123 109.503 222.101C109.554 222.08 109.608 222.07 109.663 222.07C109.717 222.071 109.772 222.082 109.822 222.104C109.872 222.126 109.917 222.158 109.955 222.198C109.992 222.238 110.021 222.285 110.04 222.336C110.059 222.388 110.067 222.442 110.064 222.497C110.061 222.552 110.047 222.605 110.023 222.655C109.998 222.704 109.964 222.747 109.923 222.783L104.889 227.524C104.815 227.595 104.717 227.634 104.614 227.635Z" fill="#E28B6D"/>
<path d="M109.275 229.255C109.195 229.255 109.117 229.232 109.051 229.188C108.984 229.144 108.932 229.082 108.901 229.008C108.87 228.935 108.861 228.854 108.876 228.776C108.89 228.697 108.928 228.625 108.983 228.568L113.819 223.532C113.894 223.461 113.994 223.421 114.098 223.422C114.202 223.423 114.302 223.463 114.376 223.535C114.451 223.607 114.496 223.705 114.5 223.809C114.505 223.912 114.47 224.014 114.402 224.092L109.566 229.129C109.529 229.168 109.484 229.2 109.433 229.222C109.383 229.243 109.329 229.255 109.275 229.255V229.255Z" fill="#E28B6D"/>
<path d="M114.033 232.104C113.954 232.103 113.877 232.08 113.811 232.037C113.746 231.994 113.694 231.932 113.663 231.86C113.632 231.788 113.622 231.708 113.635 231.63C113.649 231.553 113.684 231.481 113.738 231.423L117.53 227.356C117.566 227.317 117.61 227.286 117.658 227.264C117.707 227.241 117.759 227.229 117.812 227.227C117.866 227.226 117.919 227.234 117.969 227.253C118.019 227.272 118.064 227.3 118.103 227.336C118.142 227.373 118.174 227.417 118.196 227.465C118.218 227.514 118.23 227.566 118.232 227.619C118.234 227.673 118.225 227.726 118.206 227.776C118.188 227.825 118.159 227.871 118.123 227.91L114.331 231.977C114.292 232.018 114.246 232.05 114.195 232.072C114.144 232.093 114.088 232.104 114.033 232.104V232.104Z" fill="#E28B6D"/>
<path d="M179.158 369.726L105.829 372.562L97.7268 305.718C97.7268 305.718 122.275 282.435 131.719 273.86L147.665 273.043C197.146 295.525 189.043 323.608 179.158 369.726Z" fill="#3A6BEA"/>
<path d="M147.665 273.043C147.665 273.043 204.26 277.882 222.102 316.656C239.562 354.598 167.815 368.106 167.815 368.106L147.665 273.043Z" fill="#3A6BEA"/>
<path d="M82.9736 281.366L106.361 252.907L84.4904 239.655C75.3668 245.998 57.7258 260.365 42.7749 276.634C39.4755 280.225 36.8956 284.412 35.5992 289.037C34.5145 292.821 34.2799 296.797 34.9121 300.682V300.682C36.5326 310.618 44.35 318.283 54.7829 319.505C63.6926 320.549 97.7269 317.885 125.276 309.782L133.378 278.511C129.214 276.135 98.2714 275.723 82.9736 281.366Z" fill="#3A6BEA"/>
<g opacity="0.8">
<path opacity="0.8" d="M194.894 288.428L195.26 288.344L194.492 287.896C190.343 288.852 186.065 289.841 181.852 290.337C179.317 290.641 170.832 291.202 168.372 285.56C167.14 282.753 168.074 279.629 169.464 277.438L168.858 277.263C167.432 279.583 166.515 282.84 167.815 285.803C170.456 291.831 179.285 291.26 181.926 290.94C186.259 290.418 190.664 289.407 194.894 288.428Z" fill="white"/>
<path opacity="0.8" d="M221.308 332.157C218.605 331.114 215.798 330.031 212.881 330.31C207.731 330.796 203.324 335.891 203.055 341.653C202.873 345.591 204.377 349.717 207.242 353.343L207.757 353.019C204.954 349.493 203.482 345.491 203.661 341.676C203.913 336.192 208.075 331.357 212.936 330.9C215.727 330.641 218.336 331.645 221.094 332.708C222.067 333.088 223.081 333.473 224.099 333.797C224.151 333.603 224.202 333.405 224.248 333.208C223.25 332.896 222.271 332.53 221.308 332.157Z" fill="white"/>
<path opacity="0.8" d="M78.4589 312.832C74.9261 309.915 69.4358 309.128 63.3977 310.69C58.0175 312.08 53.4023 314.838 50.2325 318.484C50.44 318.552 50.6442 318.627 50.8548 318.688C53.9403 315.227 58.3838 312.612 63.55 311.276C69.3839 309.763 74.6895 310.502 78.0699 313.299C79.6246 314.638 80.8453 316.321 81.6351 318.215L82.2639 318.144C81.4359 316.096 80.1315 314.275 78.4589 312.832Z" fill="white"/>
<path opacity="0.8" d="M46.515 272.641C53.1365 270.995 59.5959 268.684 65.5562 265.252C67.8087 263.956 70.3497 262.303 72.1388 259.875C74.0412 257.282 74.6733 254.217 73.8306 251.65C73.4982 250.665 72.9322 249.775 72.1809 249.057L71.7142 249.439C72.4181 250.103 72.947 250.93 73.2537 251.847C74.0348 254.23 73.4384 257.098 71.6526 259.522C69.9316 261.859 67.4392 263.469 65.2548 264.733C59.6348 267.974 53.5546 270.211 47.3091 271.828L46.515 272.641Z" fill="white"/>
</g>
<path d="M152.844 258.18V259.217L152.679 275.334L152.659 277.081C152.537 279.66 151.426 282.093 149.557 283.875C147.688 285.657 145.206 286.651 142.623 286.651C140.041 286.651 137.558 285.657 135.69 283.875C133.821 282.093 132.71 279.66 132.588 277.081L132.393 257.163L152.844 258.18Z" fill="#F9B384"/>
<path d="M152.834 259.217L152.669 275.334C143.711 271.688 140.029 261.992 140.029 261.992L152.834 259.217Z" fill="#102048"/>
<path d="M156.377 231.093C159.586 234.946 168.962 256.774 159.459 264.221C148.764 272.603 132.494 258.829 132.494 258.829L130.312 233.4L144.437 229.677L156.377 231.093Z" fill="#F9B384"/>
<path d="M123.114 229.693C123.114 229.693 91.7827 246.033 117.329 293.134C120.609 299.185 127.878 301.823 134.095 298.873C135.669 298.121 137.073 297.053 138.216 295.735C139.36 294.417 140.22 292.877 140.743 291.212C141.266 289.547 141.44 287.792 141.255 286.057C141.069 284.322 140.529 282.643 139.666 281.126C135.488 273.704 131.453 264.144 133.184 257.033L123.114 229.693Z" fill="#102048"/>
<path d="M126.076 245.9C130.757 245.9 134.552 242.106 134.552 237.425C134.552 232.745 130.757 228.95 126.076 228.95C121.396 228.95 117.601 232.745 117.601 237.425C117.601 242.106 121.396 245.9 126.076 245.9Z" fill="#FBC343"/>
<path d="M136.5 247.608C135.582 242.322 135.025 238.696 140.369 235.97C140.369 235.97 159.203 239.396 162.797 232.289C166.392 225.181 160.914 213.971 149.444 221.759C120.08 216.022 116.142 243.502 125.046 252.661L133.832 251.313C134.252 251.248 134.655 251.101 135.018 250.879C135.38 250.657 135.695 250.365 135.943 250.02C136.191 249.675 136.368 249.284 136.464 248.87C136.56 248.456 136.572 248.027 136.5 247.608V247.608Z" fill="#102048"/>
<path d="M151.084 248.876C151.775 248.876 152.335 248.316 152.335 247.625C152.335 246.934 151.775 246.374 151.084 246.374C150.393 246.374 149.833 246.934 149.833 247.625C149.833 248.316 150.393 248.876 151.084 248.876Z" fill="#102048"/>
<path d="M159.556 244.701C160.247 244.701 160.807 244.141 160.807 243.45C160.807 242.759 160.247 242.199 159.556 242.199C158.865 242.199 158.305 242.759 158.305 243.45C158.305 244.141 158.865 244.701 159.556 244.701Z" fill="#102048"/>
<path d="M158.688 251.478C158.618 251.479 158.55 251.459 158.492 251.42C158.433 251.382 158.387 251.328 158.36 251.264C158.333 251.199 158.325 251.129 158.338 251.06C158.35 250.992 158.383 250.928 158.432 250.879C158.934 250.35 159.485 249.608 159.252 249.067C159.018 248.526 157.997 248.266 157.531 248.266C156.533 248.266 156.053 246.49 155.965 246.134C155.954 246.088 155.953 246.041 155.96 245.995C155.967 245.949 155.984 245.905 156.008 245.866C156.032 245.826 156.064 245.791 156.102 245.764C156.14 245.737 156.183 245.717 156.228 245.706C156.273 245.695 156.32 245.693 156.366 245.701C156.412 245.708 156.456 245.724 156.496 245.749C156.536 245.773 156.57 245.805 156.598 245.843C156.625 245.88 156.645 245.923 156.656 245.969C156.837 246.72 157.252 247.56 157.531 247.56C158.01 247.56 159.475 247.787 159.903 248.791C160.227 249.508 159.903 250.376 158.931 251.384C158.865 251.445 158.778 251.479 158.688 251.478V251.478Z" fill="#102048"/>
<path d="M158.753 256.229C158.682 256.229 158.613 256.208 158.555 256.168C156.199 254.576 153.816 255.912 153.794 255.925C153.712 255.971 153.615 255.984 153.524 255.959C153.433 255.935 153.356 255.875 153.309 255.793C153.262 255.712 153.25 255.615 153.275 255.524C153.299 255.433 153.359 255.356 153.441 255.309C153.554 255.244 156.231 253.744 158.95 255.578C159.014 255.62 159.062 255.681 159.088 255.753C159.114 255.825 159.116 255.903 159.094 255.976C159.072 256.049 159.026 256.113 158.965 256.158C158.903 256.203 158.829 256.227 158.753 256.226V256.229Z" fill="#102048"/>
<path d="M150.533 242.202C151.246 243.544 150.005 243.823 148.55 244.585C147.094 245.346 145.607 245.641 145.266 244.999C144.926 244.358 145.83 243.217 147.286 242.442C148.741 241.668 149.982 241.178 150.533 242.202Z" fill="#102048"/>
<path d="M155.836 239.782C156.16 240.977 157.041 240.456 158.338 240.106C159.634 239.756 160.684 239.114 160.535 238.543C160.386 237.973 159.213 237.785 157.913 238.125C156.614 238.466 155.593 238.858 155.836 239.782Z" fill="#102048"/>
<path opacity="0.4" d="M145.305 257.156C147.344 257.156 148.997 255.503 148.997 253.465C148.997 251.426 147.344 249.773 145.305 249.773C143.267 249.773 141.614 251.426 141.614 253.465C141.614 255.503 143.267 257.156 145.305 257.156Z" fill="#EB5D60"/>
<path d="M135.782 256.966C137.469 254.78 136.823 251.453 134.339 249.536C131.855 247.619 128.473 247.837 126.786 250.024C125.098 252.21 125.744 255.537 128.228 257.454C130.712 259.371 134.094 259.152 135.782 256.966Z" fill="#F9B384"/>
<path d="M133.479 255.332C133.385 255.332 133.295 255.294 133.229 255.228C133.163 255.162 133.126 255.072 133.126 254.978C133.129 254.467 133.006 253.963 132.768 253.511C132.53 253.059 132.184 252.672 131.761 252.386C131.429 252.145 131.043 251.989 130.636 251.933C130.23 251.876 129.816 251.92 129.431 252.062C129.387 252.086 129.339 252.101 129.289 252.105C129.24 252.109 129.19 252.103 129.143 252.087C129.096 252.07 129.053 252.044 129.016 252.01C128.98 251.976 128.951 251.935 128.932 251.889C128.913 251.842 128.904 251.793 128.905 251.743C128.907 251.693 128.919 251.644 128.94 251.599C128.962 251.555 128.993 251.515 129.031 251.483C129.069 251.451 129.114 251.427 129.162 251.413C129.653 251.227 130.183 251.164 130.705 251.23C131.226 251.296 131.724 251.489 132.153 251.793C132.672 252.143 133.097 252.617 133.39 253.171C133.683 253.725 133.835 254.342 133.832 254.969C133.833 255.016 133.825 255.063 133.808 255.107C133.791 255.151 133.765 255.191 133.732 255.225C133.699 255.259 133.66 255.285 133.616 255.304C133.573 255.322 133.526 255.332 133.479 255.332Z" fill="#102048"/>
<path d="M82.6811 281.058L69.8901 294.895L70.4851 295.445L83.2761 281.608L82.6811 281.058Z" fill="#102048"/>
<path d="M172.793 340.542L172.556 339.767C181.868 336.928 190.907 333.535 199.097 323.29L199.745 323.796C191.396 334.219 182.237 337.664 172.793 340.542Z" fill="#102048"/>
<path d="M178.455 309.167H99.2404C96.3916 309.167 94.0807 311.665 94.0807 314.747V371.301C94.0807 374.384 96.3916 376.882 99.2404 376.882H178.455C181.304 376.882 183.615 374.384 183.615 371.301V314.747C183.615 311.662 181.304 309.167 178.455 309.167Z" fill="#D3DFFF"/>
<path d="M143.021 339.45C143.095 339.452 143.168 339.47 143.236 339.501C143.304 339.533 143.365 339.577 143.415 339.632C143.466 339.686 143.505 339.751 143.531 339.821C143.556 339.891 143.568 339.965 143.565 340.039V346.009C143.568 346.084 143.556 346.158 143.531 346.228C143.505 346.298 143.466 346.362 143.415 346.417C143.365 346.472 143.304 346.516 143.236 346.547C143.168 346.579 143.095 346.596 143.021 346.599H134.665C134.591 346.596 134.517 346.579 134.45 346.547C134.382 346.516 134.321 346.472 134.271 346.417C134.22 346.362 134.181 346.298 134.155 346.228C134.129 346.158 134.118 346.084 134.121 346.009V340.026C134.118 339.952 134.129 339.878 134.155 339.808C134.181 339.738 134.22 339.673 134.271 339.619C134.321 339.564 134.382 339.52 134.45 339.488C134.517 339.457 134.591 339.44 134.665 339.437H143.021V339.45ZM143.021 337.816H134.665C134.085 337.823 133.532 338.06 133.126 338.474C132.72 338.888 132.495 339.447 132.5 340.026V345.996C132.495 346.576 132.72 347.135 133.126 347.549C133.532 347.963 134.085 348.2 134.665 348.207H143.021C143.601 348.2 144.154 347.963 144.56 347.549C144.966 347.135 145.191 346.576 145.186 345.996V340.026C145.191 339.447 144.966 338.888 144.56 338.474C144.154 338.06 143.601 337.823 143.021 337.816V337.816Z" fill="#1F3C88"/>
</g>
<defs>
<clipPath id="clip0">
<rect width="606" height="426.15" fill="white" transform="translate(10 10.4249)"/>
</clipPath>
</defs>
</svg>
