<svg width="471" height="427" viewBox="0 0 471 427" fill="none" xmlns="http://www.w3.org/2000/svg">
<path d="M462.075 308.961C454.264 291.194 439.261 276.367 421.237 269.071C402.468 261.471 380.915 264.236 361.145 261.692C343.967 259.481 331.587 251.817 321.332 238.189C311.508 225.131 302.699 210.67 286.653 204.629C273.961 199.855 259.532 201.18 246.917 206.152C223.676 215.317 206.119 234.802 191.333 254.215C177.834 271.94 166.825 291.346 141.856 291.978C116.887 292.61 93.0843 278.366 67.9305 282.135C34.6838 287.126 6.99875 314.804 1.19079 347.751C-4.24769 378.631 9.39712 408.583 32.8396 426.181H435.764C465.303 394.845 480.805 351.543 462.075 308.961Z" fill="#F7F0E3"/>
<path d="M97.8292 426.165H98.9377C106.807 417.444 112.784 407.187 116.491 396.041C122.695 377.597 122.435 358.239 115.755 341.535C112.378 333.109 107.507 325.227 102.791 317.617C98.0107 309.9 93.0681 301.921 89.7136 293.372C88.3058 289.756 87.2909 286 86.6865 282.168L85.8535 282.067C86.4618 286.036 87.5041 289.926 88.9617 293.667C92.3421 302.284 97.3074 310.296 102.107 318.042C106.804 325.619 111.659 333.459 115.007 341.833C121.615 358.362 121.871 377.519 115.726 395.782C111.975 407.06 105.875 417.416 97.8292 426.165Z" fill="white"/>
<path d="M433.816 391.024C442.119 392.794 450.118 394.378 457.855 395.377C457.988 395.121 458.117 394.865 458.247 394.608C450.446 393.617 442.366 392.016 433.984 390.23C421.215 387.511 407.408 384.565 393.685 384.565C385.197 384.565 376.754 385.693 368.632 388.704C365.544 389.851 362.574 391.295 359.764 393.014C352.43 389.89 345.056 386.477 337.754 382.73C343.053 378.738 348.411 374.829 353.823 371.063C394.012 343.006 431.09 327.1 466.917 322.585C466.845 322.323 466.771 322.06 466.696 321.798C430.772 326.335 393.611 342.297 353.363 370.412C347.834 374.272 342.366 378.268 336.957 382.345C328.659 378.079 320.587 373.389 312.772 368.292C298.512 358.958 281.58 345.635 266.782 327.93C324.132 321.497 382.52 313.391 430.202 281.523C432.014 280.314 434.02 278.885 436.098 277.268L435.404 276.781C433.414 278.324 431.492 279.698 429.755 280.849C382.085 312.707 323.588 320.751 266.166 327.194C255.707 314.554 246.363 299.688 239.871 282.489C229.756 255.696 230.291 229.406 241.336 210.352C241.816 209.526 242.309 208.709 242.843 207.905C242.383 208.116 241.926 208.336 241.469 208.554C241.184 209.014 240.906 209.477 240.636 209.944C229.468 229.208 228.913 255.751 239.113 282.771C245.572 299.876 254.832 314.674 265.203 327.298C261.88 327.669 258.559 328.038 255.24 328.403C243.284 329.722 230.933 331.086 218.911 332.632C214.53 333.196 210.073 333.854 205.623 334.681C196.117 314.616 185.675 295.044 172.176 278.256C171.981 278.447 171.787 278.635 171.592 278.827C184.974 295.485 195.352 314.914 204.803 334.836C185.461 338.524 166.679 345.46 156.651 361.6C147.284 376.673 147.294 397.509 156.677 423.527C157.001 424.426 157.334 425.315 157.675 426.194H158.544C158.171 425.222 157.801 424.25 157.442 423.252C148.146 397.477 148.114 376.877 157.341 362.024C167.249 346.076 185.931 339.234 205.166 335.588C208.524 342.686 211.765 349.848 214.987 356.959L215.337 357.733C226.528 382.436 238.102 406.273 253.257 426.194H254.268C238.977 406.237 227.338 382.257 216.076 357.399L215.726 356.625C212.53 349.573 209.315 342.475 206.002 335.436C210.352 334.632 214.724 333.987 219.022 333.436C231.014 331.89 243.381 330.519 255.321 329.223C258.813 328.838 262.31 328.45 265.813 328.059C280.754 346.04 297.899 359.548 312.325 368.989C320.055 374.013 328.035 378.64 336.234 382.854C322.45 393.28 309.045 404.244 295.954 414.955C291.417 418.663 286.837 422.396 282.216 426.156H283.512C287.87 422.619 292.192 419.095 296.476 415.584C309.658 404.801 323.16 393.753 337.041 383.268C344.304 387.005 351.626 390.398 358.931 393.532C348.952 399.878 340.817 409.708 335.9 421.641C335.285 423.135 334.747 424.645 334.251 426.159H335.103C335.573 424.749 336.075 423.342 336.649 421.946C341.579 409.98 349.782 400.16 359.839 393.915C380.232 402.578 400.271 409.008 417.494 414.103L418.142 414.294C425.399 416.439 432.821 418.64 439.387 422.169L439.938 421.541C433.265 417.92 425.736 415.707 418.372 413.516L417.724 413.325C400.679 408.282 380.867 401.93 360.682 393.396C363.298 391.836 366.052 390.517 368.907 389.455C389.938 381.677 413.251 386.642 433.816 391.024Z" fill="white"/>
<path d="M34.862 338.54C38.4272 353.189 36.8455 369.005 30.4801 381.943C26.3121 390.415 20.2935 398.086 12.8812 404.671C13.0303 404.902 13.1794 405.128 13.3285 405.355C20.8607 398.682 26.9765 390.901 31.2061 382.299C37.6526 369.196 39.2698 353.176 35.6464 338.346C32.8169 326.76 27.1256 316.956 19.2596 309.845L18.7378 310.468C26.4709 317.462 32.0715 327.126 34.862 338.54Z" fill="white"/>
<path d="M218.26 152.981C225.306 160.202 228.469 172.343 224.577 183.537C220.808 194.384 212.546 203.368 202.622 209.14C194.636 213.788 184.219 216.351 176.37 211.483C170.5 207.847 167.457 200.711 167.295 193.811C167.133 186.911 169.447 180.183 172.315 173.902C176.36 165.051 181.802 156.465 189.911 151.082C201.083 143.674 211.454 146.046 218.26 152.981Z" fill="#F7F0E3"/>
<path d="M124.681 26.5207H66.2322V0.424805H124.681V26.5207ZM67.4476 25.3054H123.466V1.62395H67.4476V25.3054Z" fill="#E9DDCA"/>
<path d="M86.6572 51.4887H28.2081V25.3799H86.6572V51.4887ZM29.4235 50.2734H85.4418V26.5952H29.4235V50.2734Z" fill="#E9DDCA"/>
<path d="M457.245 79.3121C453.462 66.7287 446.805 55.1618 437.274 44.6116C427.743 34.0613 414.721 25.3345 398.206 18.4314C381.709 11.5347 360.751 8.08636 335.33 8.08636C315.05 8.08636 294.38 10.8217 273.322 16.2924C252.264 21.763 233.974 29.578 218.451 39.7372L238.637 95.157L227.818 103.907L243.508 108.519C258.996 100.415 273.105 94.5293 285.836 90.8627C298.567 87.1962 312.081 85.3726 326.378 85.3921C340.682 85.3921 351.511 88.8404 358.867 95.7371C366.222 102.634 369.895 110.952 369.886 120.692C369.886 132.463 366.115 142.914 358.572 152.045C351.029 161.176 342.676 170.41 333.515 179.748C327.169 186.23 321.011 192.922 315.041 199.823C309.084 206.719 303.795 214.164 299.244 222.059C294.599 230.127 290.901 238.706 288.225 247.623C285.431 256.758 284.04 267.004 284.053 278.36C284.053 282.025 284.131 286.384 284.345 291.46C284.381 292.396 284.429 293.307 284.484 294.208H269.653L285.839 305.153H364.538C364.105 302.334 363.904 299.484 363.936 296.632V289.321C363.961 282.314 365.379 275.382 368.107 268.929C370.914 262.19 374.414 255.761 378.549 249.746C382.757 243.607 387.442 237.81 392.561 232.407C397.722 226.917 402.692 221.738 407.469 216.87C413.815 210.388 420.369 203.491 427.13 196.18C433.776 189.024 439.765 181.283 445.023 173.053C450.282 164.734 454.579 155.846 457.832 146.558C461.209 137.025 462.904 126.574 462.917 115.205C462.93 103.836 461.04 91.8717 457.245 79.3121Z" fill="#E49B31"/>
<path d="M309.716 81.5289C295.561 81.5289 282.206 83.293 269.65 86.8213C257.094 90.3496 243.15 96.046 227.818 103.911L203.056 37.3389C218.382 27.5189 236.456 19.9568 257.279 14.6524C278.102 9.34814 298.528 6.70139 318.558 6.71219C343.684 6.71219 364.399 10.0493 380.701 16.7234C397.004 23.3975 409.874 31.8423 419.312 42.0577C428.728 52.2796 435.307 63.4737 439.047 75.6401C442.787 87.8065 444.654 99.3907 444.647 110.393C444.647 121.412 442.973 131.525 439.624 140.734C436.401 149.739 432.154 158.343 426.964 166.376C421.757 174.355 415.839 181.846 409.281 188.758C402.607 195.836 396.13 202.51 389.851 208.78C385.132 213.499 380.222 218.512 375.12 223.818C370.069 229.038 365.438 234.649 361.271 240.6C357.191 246.41 353.733 252.632 350.952 259.164C348.258 265.396 346.856 272.109 346.829 278.898V285.976C346.797 288.737 346.995 291.496 347.422 294.224H269.637C268.787 289.854 268.293 285.422 268.159 280.972C267.949 276.062 267.871 271.842 267.871 268.293C267.871 257.305 269.245 247.388 271.993 238.545C274.646 229.901 278.302 221.597 282.887 213.804C287.394 206.15 292.622 198.944 298.499 192.284C304.387 185.61 310.473 179.134 316.759 172.855C325.793 163.821 334.047 154.884 341.52 146.043C348.994 137.201 352.721 127.088 352.702 115.701C352.702 106.266 349.071 98.211 341.809 91.5368C334.547 84.8627 323.849 81.5267 309.716 81.5289Z" fill="#FBC343"/>
<path d="M369.919 381.557C369.919 395.746 365.325 406.699 356.138 414.417C346.95 422.135 336.563 425.999 324.975 426.01C313.365 426.01 302.974 422.145 293.799 414.417C284.625 406.688 280.038 395.735 280.038 381.557C280.038 367.386 284.626 356.432 293.802 348.697C307.943 336.764 328.864 334.113 345.419 342.481C360.108 349.916 369.919 365.006 369.919 381.557Z" fill="#E49B31"/>
<path d="M354.524 381.557C354.524 395.746 349.93 406.699 340.743 414.417C331.555 422.135 321.168 425.999 309.58 426.01C297.971 426.01 287.579 422.145 278.404 414.417C269.23 406.688 264.643 395.735 264.643 381.557C264.643 367.386 269.231 356.433 278.408 348.698C287.584 340.963 297.976 337.098 309.583 337.105C321.175 337.105 331.563 340.969 340.746 348.698C349.929 356.426 354.521 367.379 354.524 381.557Z" fill="#FBC343"/>
<path d="M117.992 185.877C121.855 183.234 122.844 177.96 120.201 174.097C117.558 170.234 112.283 169.245 108.42 171.888C104.557 174.531 103.568 179.805 106.211 183.668C108.854 187.531 114.129 188.52 117.992 185.877Z" fill="#D3DFFF"/>
<path d="M125.6 196.363C126.085 193.775 124.367 191.281 121.761 190.793C119.156 190.304 116.65 192.006 116.165 194.594C115.679 197.182 117.398 199.675 120.004 200.164C122.609 200.653 125.115 198.951 125.6 196.363Z" fill="#D3DFFF"/>
<path d="M125.109 142.357C128.505 124.244 116.574 106.807 98.4602 103.411C80.3462 100.014 62.9085 111.945 59.5121 130.058C56.1156 148.171 68.0465 165.608 86.1604 169.005C104.274 172.401 121.712 160.471 125.109 142.357Z" fill="#D3DFFF"/>
<path d="M79.4849 140.391C81.8065 140.391 83.6885 138.509 83.6885 136.187C83.6885 133.866 81.8065 131.984 79.4849 131.984C77.1633 131.984 75.2812 133.866 75.2812 136.187C75.2812 138.509 77.1633 140.391 79.4849 140.391Z" fill="white"/>
<path d="M92.3 140.391C94.6216 140.391 96.5036 138.509 96.5036 136.187C96.5036 133.866 94.6216 131.984 92.3 131.984C89.9783 131.984 88.0963 133.866 88.0963 136.187C88.0963 138.509 89.9783 140.391 92.3 140.391Z" fill="white"/>
<path d="M105.112 140.391C107.433 140.391 109.315 138.509 109.315 136.187C109.315 133.866 107.433 131.984 105.112 131.984C102.79 131.984 100.908 133.866 100.908 136.187C100.908 138.509 102.79 140.391 105.112 140.391Z" fill="white"/>
<path d="M68.3939 409.306L71.5118 421.327C72.3253 424.461 75.3557 426.58 78.7102 426.35C88.9325 425.656 110.174 423.151 122.367 414.164L118.902 396.841C102.14 395.895 86.466 396.841 72.8795 401.395C69.4959 402.542 67.5221 405.948 68.3939 409.306Z" fill="#102048"/>
<path d="M87.9277 418.873C87.8396 418.873 87.754 418.844 87.6839 418.791C87.6137 418.738 87.5627 418.663 87.5388 418.578L83.3514 403.596C83.3371 403.544 83.3331 403.491 83.3395 403.438C83.346 403.385 83.3628 403.334 83.389 403.288C83.4152 403.241 83.4502 403.2 83.4922 403.168C83.5341 403.135 83.582 403.111 83.6333 403.096C83.6846 403.082 83.7382 403.078 83.7911 403.085C83.8439 403.091 83.895 403.108 83.9413 403.134C83.9876 403.16 84.0284 403.195 84.0612 403.237C84.094 403.279 84.1182 403.327 84.1324 403.378L88.3199 418.368C88.3369 418.428 88.3397 418.491 88.3282 418.553C88.3167 418.614 88.2911 418.672 88.2534 418.722C88.2157 418.772 88.167 418.812 88.1111 418.84C88.0551 418.868 87.9935 418.883 87.931 418.883L87.9277 418.873Z" fill="white"/>
<path d="M96.9768 416.848C96.8887 416.847 96.8031 416.818 96.7329 416.765C96.6628 416.712 96.6118 416.637 96.5879 416.553L92.4004 401.563C92.3716 401.46 92.3852 401.349 92.4381 401.255C92.4909 401.162 92.5788 401.093 92.6824 401.064C92.786 401.035 92.8968 401.049 92.9904 401.102C93.084 401.155 93.1527 401.243 93.1815 401.346L97.369 416.336C97.386 416.396 97.3888 416.459 97.3773 416.52C97.3658 416.582 97.3401 416.64 97.3025 416.69C97.2648 416.74 97.2161 416.78 97.1602 416.808C97.1042 416.836 97.0426 416.851 96.98 416.851L96.9768 416.848Z" fill="white"/>
<path d="M107.487 344.332L68.53 355.892L97.4596 395.535L138.997 398.838L196.289 374.612L174.519 341.856L107.487 344.332Z" fill="#FBC343"/>
<path d="M155.517 349.838C241.08 324.514 254.822 400.124 121.333 413.889C116.618 408.583 111.108 399.379 108.92 391.682L179.413 359.107L155.517 349.838Z" fill="#FBC343"/>
<path d="M159.15 404.03C155.147 402.733 151.313 400.219 151.313 400.219L137.558 404.529L140.708 419.486L154.992 422.403C159.351 414.43 159.597 407.893 159.15 404.03Z" fill="#F9B384"/>
<path d="M109.225 392.207L108.615 391.157C123.323 382.611 160.991 362.079 193.087 356.022L193.314 357.218C161.399 363.236 123.874 383.693 109.225 392.207Z" fill="#E49B31"/>
<path d="M107.484 344.332C27.8484 329.194 7.22563 405.722 140.715 419.476C145.677 413.949 149.303 407.356 151.313 400.206C130.807 386.487 107.883 373.445 82.7551 361.023L107.484 344.332Z" fill="#FBC343"/>
<path d="M150.989 400.727C147.2 398.316 143.253 395.769 139.075 393.069C118.095 379.525 94.3191 364.173 74.1177 355.419L74.6006 354.304C94.8928 363.097 118.715 378.478 139.746 392.048C143.923 394.745 147.868 397.292 151.653 399.703L150.989 400.727Z" fill="#E49B31"/>
<path d="M49.0578 382.277L47.9948 381.69C50.983 376.278 55.7733 372.615 62.2262 370.843L62.5503 372.013C56.334 373.734 51.9229 377.091 49.0578 382.277Z" fill="#E49B31"/>
<path d="M215.269 377.668C212.404 372.483 207.989 369.125 201.776 367.404L202.1 366.234C208.553 368.02 213.343 371.672 216.332 377.081L215.269 377.668Z" fill="#E49B31"/>
<path d="M133.257 418.828L132.372 417.985C138.744 411.163 142.656 403.962 144.335 395.966L145.525 396.216C143.794 404.432 139.785 411.824 133.257 418.828Z" fill="#E49B31"/>
<path d="M198.866 399.573C188.663 393.27 168.883 404.163 163.917 404.714C162.469 404.876 160.796 404.558 159.15 404.03C159.604 407.896 159.351 414.43 154.998 422.39L157.426 422.882C157.426 422.882 174.198 429.04 191.991 425.452C208.414 422.146 206.887 404.529 198.866 399.573Z" fill="#102048"/>
<path d="M184.958 420.192C184.916 420.192 184.875 420.185 184.835 420.173C184.784 420.157 184.737 420.131 184.696 420.097C184.655 420.063 184.621 420.021 184.597 419.974C184.572 419.926 184.557 419.875 184.552 419.821C184.547 419.768 184.553 419.715 184.569 419.664C185.782 415.827 186.31 408.275 182.8 403.203C182.739 403.115 182.715 403.006 182.735 402.9C182.754 402.794 182.815 402.7 182.903 402.639C182.992 402.578 183.101 402.555 183.207 402.574C183.313 402.594 183.406 402.654 183.467 402.743C187.143 408.055 186.605 415.917 185.344 419.92C185.316 420 185.264 420.069 185.195 420.118C185.126 420.167 185.043 420.193 184.958 420.192Z" fill="white"/>
<path d="M176.956 421.709C176.914 421.709 176.873 421.702 176.833 421.689C176.782 421.674 176.735 421.648 176.694 421.614C176.653 421.58 176.619 421.538 176.594 421.49C176.57 421.443 176.555 421.391 176.55 421.338C176.545 421.285 176.551 421.232 176.567 421.181C177.779 417.343 178.308 409.792 174.798 404.72C174.737 404.631 174.713 404.522 174.733 404.417C174.752 404.311 174.813 404.217 174.901 404.156C174.99 404.095 175.099 404.072 175.205 404.091C175.311 404.111 175.404 404.171 175.465 404.26C179.141 409.572 178.603 417.434 177.342 421.437C177.314 421.517 177.262 421.586 177.193 421.635C177.124 421.684 177.041 421.71 176.956 421.709V421.709Z" fill="white"/>
<path d="M93.3955 245.659C93.3955 245.659 113.451 228.605 112.709 225.364C112.177 223.047 106.496 226.444 106.496 226.444C106.496 226.444 114.462 216.99 114.057 215.842C113.334 213.791 107.821 217.615 107.821 217.615C107.821 217.615 111.545 212.255 109.766 211.38C107.987 210.505 104.104 213.81 104.104 213.81C104.104 213.81 106.373 210.835 105.306 210.054C104.24 209.273 99.6442 212.485 99.6442 212.485C99.6442 212.485 101.294 208.732 97.7903 210.155C94.2868 211.577 69.7131 234.137 69.7131 234.137L93.3955 245.659Z" fill="#F9B384"/>
<path d="M101.602 225.432C101.501 225.432 101.404 225.394 101.329 225.325C97.8875 222.182 96.3674 221.417 92.5786 220.247C92.5277 220.231 92.4805 220.205 92.4395 220.171C92.3986 220.137 92.3647 220.096 92.3399 220.049C92.3151 220.001 92.2997 219.95 92.2948 219.897C92.2899 219.844 92.2955 219.79 92.3112 219.74C92.327 219.689 92.3526 219.642 92.3866 219.601C92.4206 219.56 92.4624 219.526 92.5095 219.501C92.5566 219.476 92.6081 219.461 92.6611 219.456C92.7141 219.451 92.7676 219.457 92.8185 219.472C96.7531 220.681 98.3283 221.472 101.893 224.726C101.953 224.781 101.995 224.853 102.014 224.932C102.032 225.011 102.026 225.094 101.997 225.17C101.968 225.246 101.916 225.311 101.849 225.358C101.782 225.404 101.703 225.429 101.621 225.429L101.602 225.432Z" fill="#E28B6D"/>
<path d="M95.5604 234.682H95.5053C95.3992 234.667 95.3035 234.61 95.2391 234.524C95.1747 234.439 95.1469 234.331 95.1617 234.225C95.5571 231.405 96.4581 229.642 97.8745 228.838C99.0996 228.151 100.691 228.219 102.61 229.049C102.705 229.094 102.779 229.174 102.816 229.273C102.853 229.372 102.85 229.481 102.807 229.577C102.765 229.674 102.687 229.75 102.59 229.79C102.492 229.83 102.383 229.83 102.286 229.791C100.613 229.069 99.2617 228.984 98.2699 229.545C97.0902 230.193 96.3253 231.814 95.9623 234.338C95.9475 234.434 95.8988 234.522 95.8251 234.585C95.7513 234.648 95.6574 234.682 95.5604 234.682Z" fill="#E28B6D"/>
<path d="M94.614 217.635C94.5328 217.635 94.4533 217.611 94.386 217.565C94.3187 217.52 94.2667 217.455 94.2366 217.379C94.2066 217.304 94.1999 217.221 94.2175 217.142C94.2351 217.063 94.2761 216.99 94.3353 216.935L99.3686 212.193C99.4068 212.154 99.4525 212.123 99.503 212.101C99.5536 212.08 99.6079 212.07 99.6627 212.07C99.7174 212.071 99.7716 212.082 99.8218 212.104C99.872 212.126 99.9172 212.158 99.9547 212.198C99.9922 212.238 100.021 212.285 100.04 212.336C100.059 212.388 100.067 212.442 100.064 212.497C100.061 212.552 100.047 212.605 100.023 212.655C99.9984 212.704 99.9645 212.747 99.9228 212.783L94.8895 217.524C94.8151 217.595 94.7165 217.634 94.614 217.635Z" fill="#E28B6D"/>
<path d="M99.2747 219.255C99.195 219.255 99.1171 219.232 99.0506 219.188C98.9842 219.144 98.9321 219.082 98.901 219.008C98.8699 218.935 98.861 218.854 98.8756 218.776C98.8902 218.697 98.9276 218.625 98.983 218.568L103.819 213.532C103.894 213.461 103.994 213.421 104.098 213.422C104.202 213.423 104.302 213.463 104.376 213.535C104.451 213.607 104.496 213.705 104.5 213.809C104.505 213.912 104.47 214.014 104.402 214.092L99.5664 219.129C99.5288 219.168 99.4836 219.2 99.4335 219.222C99.3833 219.243 99.3293 219.255 99.2747 219.255V219.255Z" fill="#E28B6D"/>
<path d="M104.033 222.104C103.954 222.103 103.877 222.08 103.811 222.037C103.746 221.994 103.694 221.932 103.663 221.86C103.632 221.788 103.622 221.708 103.635 221.63C103.649 221.553 103.684 221.481 103.738 221.423L107.53 217.356C107.566 217.317 107.61 217.286 107.658 217.264C107.707 217.241 107.759 217.229 107.812 217.227C107.866 217.226 107.919 217.234 107.969 217.253C108.019 217.272 108.064 217.3 108.103 217.336C108.142 217.373 108.174 217.417 108.196 217.465C108.218 217.514 108.23 217.566 108.232 217.619C108.234 217.673 108.225 217.726 108.206 217.776C108.188 217.825 108.159 217.871 108.123 217.91L104.331 221.977C104.292 222.018 104.246 222.05 104.195 222.072C104.144 222.093 104.088 222.104 104.033 222.104V222.104Z" fill="#E28B6D"/>
<path d="M169.158 359.726L95.8294 362.562L87.7268 295.718C87.7268 295.718 112.275 272.435 121.719 263.86L137.665 263.043C187.146 285.525 179.043 313.608 169.158 359.726Z" fill="#3A6BEA"/>
<path d="M137.665 263.043C137.665 263.043 194.26 267.882 212.102 306.656C229.562 344.598 157.815 358.106 157.815 358.106L137.665 263.043Z" fill="#3A6BEA"/>
<path d="M72.9736 271.366L96.361 242.907L74.4904 229.655C65.3668 235.998 47.7258 250.365 32.7749 266.634C29.4755 270.225 26.8956 274.412 25.5992 279.037C24.5145 282.821 24.2799 286.797 24.9121 290.682V290.682C26.5326 300.618 34.35 308.283 44.7829 309.505C53.6926 310.549 87.7269 307.885 115.276 299.782L123.378 268.511C119.214 266.135 88.2714 265.723 72.9736 271.366Z" fill="#3A6BEA"/>
<g opacity="0.8">
<path opacity="0.8" d="M184.894 278.428L185.26 278.344L184.492 277.896C180.343 278.852 176.065 279.841 171.852 280.337C169.317 280.641 160.832 281.202 158.372 275.56C157.14 272.753 158.074 269.629 159.464 267.438L158.858 267.263C157.432 269.583 156.515 272.84 157.815 275.803C160.456 281.831 169.285 281.26 171.926 280.94C176.259 280.418 180.664 279.407 184.894 278.428Z" fill="white"/>
<path opacity="0.8" d="M211.308 322.157C208.605 321.114 205.798 320.031 202.881 320.31C197.731 320.796 193.324 325.891 193.055 331.653C192.873 335.591 194.377 339.717 197.242 343.343L197.757 343.019C194.954 339.493 193.482 335.491 193.661 331.676C193.913 326.192 198.075 321.357 202.936 320.9C205.727 320.641 208.336 321.645 211.094 322.708C212.067 323.088 213.081 323.473 214.099 323.797C214.151 323.603 214.202 323.405 214.248 323.208C213.25 322.896 212.271 322.53 211.308 322.157Z" fill="white"/>
<path opacity="0.8" d="M68.4589 302.832C64.9261 299.915 59.4358 299.128 53.3977 300.69C48.0175 302.08 43.4023 304.838 40.2325 308.484C40.44 308.552 40.6442 308.627 40.8548 308.688C43.9403 305.227 48.3838 302.612 53.55 301.276C59.3839 299.763 64.6895 300.502 68.0699 303.299C69.6246 304.638 70.8453 306.321 71.6351 308.215L72.2639 308.144C71.4359 306.096 70.1315 304.275 68.4589 302.832Z" fill="white"/>
<path opacity="0.8" d="M36.515 262.641C43.1365 260.995 49.5959 258.684 55.5562 255.252C57.8087 253.956 60.3497 252.303 62.1388 249.875C64.0412 247.282 64.6733 244.217 63.8306 241.65C63.4982 240.665 62.9322 239.775 62.1809 239.057L61.7142 239.439C62.4181 240.103 62.947 240.93 63.2537 241.847C64.0348 244.23 63.4384 247.098 61.6526 249.522C59.9316 251.859 57.4392 253.469 55.2548 254.733C49.6348 257.974 43.5546 260.211 37.3091 261.828L36.515 262.641Z" fill="white"/>
</g>
<path d="M142.844 248.18V249.217L142.679 265.334L142.659 267.081C142.537 269.66 141.426 272.093 139.557 273.875C137.688 275.657 135.206 276.651 132.623 276.651C130.041 276.651 127.558 275.657 125.69 273.875C123.821 272.093 122.71 269.66 122.588 267.081L122.393 247.163L142.844 248.18Z" fill="#F9B384"/>
<path d="M142.834 249.217L142.669 265.334C133.711 261.688 130.029 251.992 130.029 251.992L142.834 249.217Z" fill="#102048"/>
<path d="M146.377 221.093C149.586 224.946 158.962 246.774 149.459 254.221C138.764 262.603 122.494 248.829 122.494 248.829L120.312 223.4L134.437 219.677L146.377 221.093Z" fill="#F9B384"/>
<path d="M113.114 219.693C113.114 219.693 81.7827 236.033 107.329 283.134C110.609 289.185 117.878 291.823 124.095 288.873C125.669 288.121 127.073 287.053 128.216 285.735C129.36 284.417 130.22 282.877 130.743 281.212C131.266 279.547 131.44 277.792 131.255 276.057C131.069 274.322 130.529 272.643 129.666 271.126C125.488 263.704 121.453 254.144 123.184 247.033L113.114 219.693Z" fill="#102048"/>
<path d="M116.076 235.9C120.757 235.9 124.552 232.106 124.552 227.425C124.552 222.745 120.757 218.95 116.076 218.95C111.396 218.95 107.601 222.745 107.601 227.425C107.601 232.106 111.396 235.9 116.076 235.9Z" fill="#FBC343"/>
<path d="M126.5 237.608C125.582 232.322 125.025 228.696 130.369 225.97C130.369 225.97 149.203 229.396 152.797 222.289C156.392 215.181 150.914 203.971 139.444 211.759C110.08 206.022 106.142 233.502 115.046 242.661L123.832 241.313C124.252 241.248 124.655 241.101 125.018 240.879C125.38 240.657 125.695 240.365 125.943 240.02C126.191 239.675 126.368 239.284 126.464 238.87C126.56 238.456 126.572 238.027 126.5 237.608V237.608Z" fill="#102048"/>
<path d="M141.084 238.876C141.775 238.876 142.335 238.316 142.335 237.625C142.335 236.934 141.775 236.374 141.084 236.374C140.393 236.374 139.833 236.934 139.833 237.625C139.833 238.316 140.393 238.876 141.084 238.876Z" fill="#102048"/>
<path d="M149.556 234.701C150.247 234.701 150.807 234.141 150.807 233.45C150.807 232.759 150.247 232.199 149.556 232.199C148.865 232.199 148.305 232.759 148.305 233.45C148.305 234.141 148.865 234.701 149.556 234.701Z" fill="#102048"/>
<path d="M148.688 241.478C148.618 241.479 148.55 241.459 148.492 241.42C148.433 241.382 148.387 241.328 148.36 241.264C148.333 241.199 148.325 241.129 148.338 241.06C148.35 240.992 148.383 240.928 148.432 240.879C148.934 240.35 149.485 239.608 149.252 239.067C149.018 238.526 147.997 238.266 147.531 238.266C146.533 238.266 146.053 236.49 145.965 236.134C145.954 236.088 145.953 236.041 145.96 235.995C145.967 235.949 145.984 235.905 146.008 235.866C146.032 235.826 146.064 235.791 146.102 235.764C146.14 235.737 146.183 235.717 146.228 235.706C146.273 235.695 146.32 235.693 146.366 235.701C146.412 235.708 146.456 235.724 146.496 235.749C146.536 235.773 146.57 235.805 146.598 235.843C146.625 235.88 146.645 235.923 146.656 235.969C146.837 236.72 147.252 237.56 147.531 237.56C148.01 237.56 149.475 237.787 149.903 238.791C150.227 239.508 149.903 240.376 148.931 241.384C148.865 241.445 148.778 241.479 148.688 241.478V241.478Z" fill="#102048"/>
<path d="M148.753 246.229C148.682 246.229 148.613 246.208 148.555 246.168C146.199 244.576 143.816 245.912 143.794 245.925C143.712 245.971 143.615 245.984 143.524 245.959C143.433 245.935 143.356 245.875 143.309 245.793C143.262 245.712 143.25 245.615 143.275 245.524C143.299 245.433 143.359 245.356 143.441 245.309C143.554 245.244 146.231 243.744 148.95 245.578C149.014 245.62 149.062 245.681 149.088 245.753C149.114 245.825 149.116 245.903 149.094 245.976C149.072 246.049 149.026 246.113 148.965 246.158C148.903 246.203 148.829 246.227 148.753 246.226V246.229Z" fill="#102048"/>
<path d="M140.533 232.202C141.246 233.544 140.005 233.823 138.55 234.585C137.094 235.346 135.607 235.641 135.266 234.999C134.926 234.358 135.83 233.217 137.286 232.442C138.741 231.668 139.982 231.178 140.533 232.202Z" fill="#102048"/>
<path d="M145.836 229.782C146.16 230.977 147.041 230.456 148.338 230.106C149.634 229.756 150.684 229.114 150.535 228.543C150.386 227.973 149.213 227.785 147.913 228.125C146.614 228.466 145.593 228.858 145.836 229.782Z" fill="#102048"/>
<path opacity="0.4" d="M135.305 247.156C137.344 247.156 138.997 245.503 138.997 243.465C138.997 241.426 137.344 239.773 135.305 239.773C133.267 239.773 131.614 241.426 131.614 243.465C131.614 245.503 133.267 247.156 135.305 247.156Z" fill="#EB5D60"/>
<path d="M125.782 246.966C127.469 244.78 126.823 241.453 124.339 239.536C121.855 237.619 118.473 237.837 116.786 240.024C115.098 242.21 115.744 245.537 118.228 247.454C120.712 249.371 124.094 249.152 125.782 246.966Z" fill="#F9B384"/>
<path d="M123.479 245.332C123.385 245.332 123.295 245.294 123.229 245.228C123.163 245.162 123.126 245.072 123.126 244.978C123.129 244.467 123.006 243.963 122.768 243.511C122.53 243.059 122.184 242.672 121.761 242.386C121.429 242.145 121.043 241.989 120.636 241.933C120.23 241.876 119.816 241.92 119.431 242.062C119.387 242.086 119.339 242.101 119.289 242.105C119.24 242.109 119.19 242.103 119.143 242.087C119.096 242.07 119.053 242.044 119.016 242.01C118.98 241.976 118.951 241.935 118.932 241.889C118.913 241.842 118.904 241.793 118.905 241.743C118.907 241.693 118.919 241.644 118.94 241.599C118.962 241.555 118.993 241.515 119.031 241.483C119.069 241.451 119.114 241.427 119.162 241.413C119.653 241.227 120.183 241.164 120.705 241.23C121.226 241.296 121.724 241.489 122.153 241.793C122.672 242.143 123.097 242.617 123.39 243.171C123.683 243.725 123.835 244.342 123.832 244.969C123.833 245.016 123.825 245.063 123.808 245.107C123.791 245.151 123.765 245.191 123.732 245.225C123.699 245.259 123.66 245.285 123.616 245.304C123.573 245.322 123.526 245.332 123.479 245.332Z" fill="#102048"/>
<path d="M72.6811 271.058L59.8901 284.895L60.4851 285.445L73.2761 271.608L72.6811 271.058Z" fill="#102048"/>
<path d="M162.793 330.542L162.556 329.767C171.868 326.928 180.907 323.535 189.097 313.29L189.745 313.796C181.396 324.219 172.237 327.664 162.793 330.542Z" fill="#102048"/>
<path d="M168.455 299.167H89.2404C86.3916 299.167 84.0807 301.665 84.0807 304.747V361.301C84.0807 364.384 86.3916 366.882 89.2404 366.882H168.455C171.304 366.882 173.615 364.384 173.615 361.301V304.747C173.615 301.662 171.304 299.167 168.455 299.167Z" fill="#D3DFFF"/>
<path d="M133.021 329.45C133.095 329.452 133.168 329.47 133.236 329.501C133.304 329.533 133.365 329.577 133.415 329.632C133.466 329.686 133.505 329.751 133.531 329.821C133.556 329.891 133.568 329.965 133.565 330.039V336.009C133.568 336.084 133.556 336.158 133.531 336.228C133.505 336.298 133.466 336.362 133.415 336.417C133.365 336.472 133.304 336.516 133.236 336.547C133.168 336.579 133.095 336.596 133.021 336.599H124.665C124.591 336.596 124.517 336.579 124.45 336.547C124.382 336.516 124.321 336.472 124.271 336.417C124.22 336.362 124.181 336.298 124.155 336.228C124.129 336.158 124.118 336.084 124.121 336.009V330.026C124.118 329.952 124.129 329.878 124.155 329.808C124.181 329.738 124.22 329.673 124.271 329.619C124.321 329.564 124.382 329.52 124.45 329.488C124.517 329.457 124.591 329.44 124.665 329.437H133.021V329.45ZM133.021 327.816H124.665C124.085 327.823 123.532 328.06 123.126 328.474C122.72 328.888 122.495 329.447 122.5 330.026V335.996C122.495 336.576 122.72 337.135 123.126 337.549C123.532 337.963 124.085 338.2 124.665 338.207H133.021C133.601 338.2 134.154 337.963 134.56 337.549C134.966 337.135 135.191 336.576 135.186 335.996V330.026C135.191 329.447 134.966 328.888 134.56 328.474C134.154 328.06 133.601 327.823 133.021 327.816V327.816Z" fill="#1F3C88"/>
</svg>
