<svg width="40" height="39" viewBox="0 0 40 39" fill="none" xmlns="http://www.w3.org/2000/svg">
<g clip-path="url(#clip0)">
<path d="M15.7287 22.6114C18.0481 24.9643 20.8545 26.7809 23.9509 27.9336L28.1398 24.6003C28.264 24.5148 28.4112 24.469 28.562 24.469C28.7128 24.469 28.86 24.5148 28.9842 24.6003L36.762 29.6114C37.0573 29.7889 37.3072 30.0327 37.4921 30.3234C37.677 30.6141 37.7917 30.9438 37.8273 31.2865C37.8629 31.6292 37.8183 31.9755 37.697 32.298C37.5758 32.6205 37.3812 32.9104 37.1287 33.1447L33.4842 36.7447C32.9623 37.2604 32.3208 37.6389 31.617 37.8463C30.9133 38.0538 30.1691 38.0838 29.4509 37.9336C22.2867 36.454 15.6832 32.9886 10.3953 27.9336C5.22474 22.8283 1.64673 16.3323 0.0953174 9.23361C-0.0579424 8.52654 -0.025955 7.79188 0.18818 7.1008C0.402314 6.40973 0.791334 5.7857 1.31754 5.28917L5.09532 1.64472C5.32909 1.40449 5.61419 1.22025 5.92926 1.10581C6.24433 0.991367 6.5812 0.949686 6.91466 0.983887C7.24812 1.01809 7.56952 1.12728 7.8548 1.3033C8.14008 1.47931 8.38184 1.71759 8.56198 2.00028L13.7398 9.67806C13.8291 9.79862 13.8773 9.94468 13.8773 10.0947C13.8773 10.2448 13.8291 10.3908 13.7398 10.5114L10.3286 14.6114C11.5126 17.6458 13.3572 20.3785 15.7287 22.6114Z" fill="#27272A"/>
</g>
<defs>
<clipPath id="clip0">
<rect width="40" height="37.0554" fill="white" transform="translate(0 0.97229)"/>
</clipPath>
</defs>
</svg>
