<svg width="44" height="45" viewBox="0 0 44 45" fill="none" xmlns="http://www.w3.org/2000/svg">
<path d="M17.2242 39.0033C14.9086 37.0281 12.7622 34.8627 10.8075 32.5298C7.8742 29.0263 4.39087 23.8086 4.39087 18.8366C4.3896 16.2974 5.14164 13.8148 6.55181 11.7031C7.96198 9.59147 9.9669 7.9456 12.3128 6.97382C14.6588 6.00205 17.2402 5.74804 19.7306 6.24396C22.2209 6.73988 24.5082 7.96343 26.3029 9.75976C27.4978 10.9493 28.4448 12.3641 29.0893 13.9221C29.7338 15.4801 30.0629 17.1505 30.0575 18.8366C30.0575 23.8086 26.5742 29.0263 23.6409 32.5298C21.6862 34.8627 19.5398 37.0281 17.2242 39.0033ZM17.2242 13.3366C15.7655 13.3366 14.3666 13.9161 13.3351 14.9475C12.3037 15.979 11.7242 17.3779 11.7242 18.8366C11.7242 20.2953 12.3037 21.6942 13.3351 22.7257C14.3666 23.7571 15.7655 24.3366 17.2242 24.3366C18.6829 24.3366 20.0818 23.7571 21.1133 22.7257C22.1447 21.6942 22.7242 20.2953 22.7242 18.8366C22.7242 17.3779 22.1447 15.979 21.1133 14.9475C20.0818 13.9161 18.6829 13.3366 17.2242 13.3366Z" fill="#27272A"/>
</svg>
