<svg width="40" height="41" viewBox="0 0 40 41" fill="none" xmlns="http://www.w3.org/2000/svg">
<path d="M35.9222 7.16673C35.7707 7.15113 35.6181 7.15113 35.4666 7.16673H4.35549C4.15609 7.16981 3.95802 7.1997 3.7666 7.25562L19.8222 23.2445L35.9222 7.16673Z" fill="#27272A"/>
<path d="M37.5666 8.71118L21.3889 24.8223C20.9725 25.2362 20.4093 25.4685 19.8222 25.4685C19.2351 25.4685 18.6719 25.2362 18.2555 24.8223L2.22219 8.8334C2.1729 9.01456 2.14676 9.20123 2.14441 9.38896V31.6112C2.14441 32.2006 2.37854 32.7658 2.79528 33.1825C3.21203 33.5993 3.77726 33.8334 4.36663 33.8334H35.4777C36.0671 33.8334 36.6323 33.5993 37.0491 33.1825C37.4658 32.7658 37.7 32.2006 37.7 31.6112V9.38896C37.6911 9.15746 37.6461 8.92878 37.5666 8.71118ZM5.88885 31.6112H4.34441V30.0223L12.4222 22.0112L13.9889 23.5778L5.88885 31.6112ZM35.4555 31.6112H33.9L25.8 23.5778L27.3666 22.0112L35.4444 30.0223L35.4555 31.6112Z" fill="#27272A"/>
</svg>
